<?xml version="1.0" encoding="utf-8"?>
<svg xmlns="http://www.w3.org/2000/svg"
	xmlns:xlink="http://www.w3.org/1999/xlink"
	width="138px" height="30px" viewBox="0 0 138 30">
<filter filterUnits="objectBoundingBox" x="0.00" y="-4.00" width="100.00" height="108.00" id="filter0">
<feGaussianBlur in="SourceAlpha" stdDeviation="0.00" result="dsBlurOut1"/>
<feFlood flood-color="rgb(255,255,255)" result="dsFloodOut1"/>
<feComposite in="dsFloodOut1" in2="dsBlurOut1" operator="in" result="dsShadow1"/>
<feOffset in="dsShadow1" dx="-0.00" dy="1.00" result="dsOffset1"/>
<feComposite in="dsOffset1" in2="SourceAlpha" operator="out" result="dropShadow1"/>
<feBlend in="dropShadow1" in2="SourceGraphic" mode="normal" result="sourceGraphic"/>
<feFlood flood-color="rgb(167,11,11)" result="isFloodOut1"/>
<feOffset in="SourceAlpha" dx="-0.00" dy="1.00" result="isOffset1"/>
<feGaussianBlur in="isOffset1" stdDeviation="0.00" result="isBlurOut1"/>
<feComposite in="isFloodOut1" in2="isBlurOut1" operator="out" result="isShadow1"/>
<feComponentTransfer in="isShadow1" result="isShadowOpacity1">
    <feFuncA type="linear" slope="0.50"/>
</feComponentTransfer>
<feComposite in="isShadowOpacity1" in2="SourceAlpha" operator="in" result="isInnerShadow1"/>
<feBlend in="isInnerShadow1" in2="sourceGraphic" mode="normal" result="innerShadow1"/>
</filter>
<filter filterUnits="objectBoundingBox" x="0.00" y="-3.57" width="100.00" height="107.14" id="filter1">
<feGaussianBlur in="SourceAlpha" stdDeviation="0.00" result="dsBlurOut1"/>
<feFlood flood-color="rgb(255,255,255)" result="dsFloodOut1"/>
<feComposite in="dsFloodOut1" in2="dsBlurOut1" operator="in" result="dsShadow1"/>
<feOffset in="dsShadow1" dx="-0.00" dy="1.00" result="dsOffset1"/>
<feComposite in="dsOffset1" in2="SourceAlpha" operator="out" result="dropShadow1"/>
<feBlend in="dropShadow1" in2="SourceGraphic" mode="normal" result="sourceGraphic"/>
<feFlood flood-color="rgb(0,49,120)" result="isFloodOut1"/>
<feOffset in="SourceAlpha" dx="-0.00" dy="1.00" result="isOffset1"/>
<feGaussianBlur in="isOffset1" stdDeviation="0.00" result="isBlurOut1"/>
<feComposite in="isFloodOut1" in2="isBlurOut1" operator="out" result="isShadow1"/>
<feComponentTransfer in="isShadow1" result="isShadowOpacity1">
    <feFuncA type="linear" slope="0.50"/>
</feComponentTransfer>
<feComposite in="isShadowOpacity1" in2="SourceAlpha" operator="in" result="isInnerShadow1"/>
<feBlend in="isInnerShadow1" in2="sourceGraphic" mode="normal" result="innerShadow1"/>
</filter>
<filter filterUnits="objectBoundingBox" x="0.00" y="-4.76" width="100.00" height="109.52" id="filter2">
<feGaussianBlur in="SourceAlpha" stdDeviation="0.00" result="dsBlurOut1"/>
<feFlood flood-color="rgb(255,255,255)" result="dsFloodOut1"/>
<feComposite in="dsFloodOut1" in2="dsBlurOut1" operator="in" result="dsShadow1"/>
<feOffset in="dsShadow1" dx="-0.00" dy="1.00" result="dsOffset1"/>
<feComposite in="dsOffset1" in2="SourceAlpha" operator="out" result="dropShadow1"/>
<feBlend in="dropShadow1" in2="SourceGraphic" mode="normal" result="sourceGraphic"/>
<feFlood flood-color="rgb(193,121,9)" result="isFloodOut1"/>
<feOffset in="SourceAlpha" dx="-0.00" dy="1.00" result="isOffset1"/>
<feGaussianBlur in="isOffset1" stdDeviation="0.00" result="isBlurOut1"/>
<feComposite in="isFloodOut1" in2="isBlurOut1" operator="out" result="isShadow1"/>
<feComponentTransfer in="isShadow1" result="isShadowOpacity1">
    <feFuncA type="linear" slope="0.50"/>
</feComponentTransfer>
<feComposite in="isShadowOpacity1" in2="SourceAlpha" operator="in" result="isInnerShadow1"/>
<feBlend in="isInnerShadow1" in2="sourceGraphic" mode="normal" result="innerShadow1"/>
</filter>
<filter filterUnits="objectBoundingBox" x="0.00" y="-4.17" width="100.00" height="108.33" id="filter3">
<feGaussianBlur in="SourceAlpha" stdDeviation="0.00" result="dsBlurOut1"/>
<feFlood flood-color="rgb(255,255,255)" result="dsFloodOut1"/>
<feComposite in="dsFloodOut1" in2="dsBlurOut1" operator="in" result="dsShadow1"/>
<feOffset in="dsShadow1" dx="-0.00" dy="1.00" result="dsOffset1"/>
<feComposite in="dsOffset1" in2="SourceAlpha" operator="out" result="dropShadow1"/>
<feBlend in="dropShadow1" in2="SourceGraphic" mode="normal" result="sourceGraphic"/>
<feFlood flood-color="rgb(0,139,207)" result="isFloodOut1"/>
<feOffset in="SourceAlpha" dx="-0.00" dy="1.00" result="isOffset1"/>
<feGaussianBlur in="isOffset1" stdDeviation="0.00" result="isBlurOut1"/>
<feComposite in="isFloodOut1" in2="isBlurOut1" operator="out" result="isShadow1"/>
<feComponentTransfer in="isShadow1" result="isShadowOpacity1">
    <feFuncA type="linear" slope="0.50"/>
</feComponentTransfer>
<feComposite in="isShadowOpacity1" in2="SourceAlpha" operator="in" result="isInnerShadow1"/>
<feBlend in="isInnerShadow1" in2="sourceGraphic" mode="normal" result="innerShadow1"/>
</filter>
<path fillRule="evenodd" d="M 137.36 10.24C 137.36 6.22 133.96 2.48 128.79 2.48 122.35 2.48 119.11 7.09 119.11 10.94 119.11 13.27 119.99 15.34 121.88 16.11 122.19 16.24 122.47 16.12 122.56 15.78 122.62 15.54 122.77 14.94 122.84 14.69 122.93 14.35 122.89 14.23 122.64 13.93 122.1 13.29 121.75 12.46 121.75 11.28 121.75 7.85 124.31 4.79 128.42 4.79 132.05 4.79 134.05 7.01 134.05 9.98 134.05 13.89 132.32 17.18 129.76 17.18 128.34 17.18 127.28 16.01 127.62 14.57 128.03 12.86 128.82 11.01 128.82 9.77 128.82 8.66 128.22 7.73 126.99 7.73 125.54 7.73 124.38 9.23 124.38 11.24 124.38 12.52 124.81 13.38 124.81 13.38 124.81 13.38 123.33 19.66 123.07 20.76 122.55 22.95 122.99 25.64 123.03 25.91 123.05 26.07 123.25 26.11 123.35 25.99 123.48 25.81 125.21 23.68 125.79 21.56 125.96 20.95 126.75 17.83 126.75 17.83 127.22 18.73 128.59 19.52 130.05 19.52 134.41 19.52 137.36 15.55 137.36 10.24" fill="rgb(255,255,255)" filter="url(#filter0)"/><path fillRule="evenodd" d="M 97.33 1.9C 97.33 1.9 93.49 1.9 93.49 1.9 93.49 1.9 87.48 1.28 87.48 7.53 87.48 8.87 87.48 10.12 87.48 10.12 87.48 10.12 85.03 10.12 85.03 10.12 85.03 10.12 84.99 15.05 84.99 15.05 84.99 15.05 87.48 15.05 87.48 15.05 87.48 15.05 87.48 28.15 87.48 28.15 87.48 28.15 93.18 28.15 93.18 28.15 93.18 28.15 93.18 15.05 93.18 15.05 93.18 15.05 96.47 15.05 96.47 15.05 96.47 15.05 97.27 10.12 97.27 10.12 97.27 10.12 93.18 10.12 93.18 10.12 93.18 10.12 93.18 8.12 93.18 8.12 93.18 8.12 92.83 6.43 94.85 6.43 94.85 6.43 97.3 6.43 97.3 6.43 97.3 6.43 97.33 1.9 97.33 1.9Z" fill="rgb(255,255,255)" filter="url(#filter1)"/><path fillRule="evenodd" d="M 55.09 23.64C 55.09 14.51 47.67 7.09 38.54 7.09 38.54 7.09 38.54 3.14 38.54 3.14 49.87 3.14 59.05 12.32 59.05 23.64 59.05 23.64 55.09 23.64 55.09 23.64ZM 51.87 23.64C 51.87 23.64 47.91 23.64 47.91 23.64 47.91 18.47 43.71 14.26 38.54 14.26 38.54 14.26 38.54 10.32 38.54 10.32 45.9 10.32 51.87 16.29 51.87 23.64ZM 40.96 18.81C 42.29 18.81 43.37 19.89 43.37 21.23 43.37 22.56 42.29 23.64 40.96 23.64 39.62 23.64 38.54 22.56 38.54 21.23 38.54 19.89 39.62 18.81 40.96 18.81Z" fill="rgb(255,255,255)" filter="url(#filter2)"/><path fillRule="evenodd" d="M 14.57 11.82C 15.35 11.82 16.02 11.61 16.57 11.05 17.13 10.5 17.41 9.86 17.41 9.08 17.41 8.3 17.13 7.86 16.57 7.3 16.01 6.75 15.34 7.22 14.56 7.22 14.56 7.22 5.83 7.22 5.83 7.22 5.83 7.22 5.83 3.43 5.83 3.43 5.83 2.65 5.71 1.99 5.15 1.43 4.6 0.87 4.01 0.59 3.24 0.59 2.44 0.59 1.92 0.86 1.37 1.41 0.82 1.96 0.7 2.63 0.7 3.44 0.7 3.44 0.7 14.77 0.7 14.77 0.7 17.11 1.41 19.04 3.07 20.7 4.73 22.36 6.61 23.11 8.95 23.11 8.95 23.11 14.57 23.11 14.57 23.11 15.35 23.11 16.02 22.91 16.57 22.35 17.13 21.8 17.41 21.17 17.41 20.39 17.41 19.61 17.13 19.16 16.57 18.6 16.02 18.04 15.35 17.98 14.57 17.98 14.57 17.98 8.95 17.98 8.95 17.98 8.17 17.98 7.35 17.51 6.8 16.96 6.26 16.42 5.83 15.55 5.83 14.77 5.83 14.77 5.83 11.82 5.83 11.82 5.83 11.82 14.57 11.82 14.57 11.82 14.57 11.82 14.57 11.82 14.57 11.82Z" fill="rgb(255,255,255)" filter="url(#filter3)"/></svg>